<?xml version="1.0" encoding="utf-8" ?><svg xmlns="http://www.w3.org/2000/svg" xmlns:xlink="http://www.w3.org/1999/xlink" width="1024" height="1024" viewBox="0 0 1024 1024"><path fill="#F7B2CD" transform="scale(2 2)" d="M183.212 93.7282C188.181 83.3553 202.177 85.6678 211.898 85.6729L237.787 85.6882C276.302 85.6806 321.914 82.5008 357.47 99.3134C402.141 119.83 411.875 188.3 377.077 222.144C363.813 235.849 347.827 242.757 330.101 248.819C385.759 258.678 427.475 284.18 416.363 346.841C402.294 426.171 318.704 426.936 253.975 426.891C248.135 426.886 211.532 426.636 207.193 424.263C204.27 422.703 200.536 421.562 197.321 420.803C193.538 419.611 187.125 418.75 183.212 419.199C183.285 418.959 183.864 418.028 184.022 417.706C183.798 416.331 183.987 411.574 183.995 409.886L184.022 327.415C184.136 326.874 193.54 320.649 195.1 319.406C206.273 310.504 216.677 299.583 224.12 287.341C235.979 270.764 239.078 250.796 237.82 230.989C236.829 203.265 230.049 182.043 209.368 161.822C206.081 158.609 202.34 154.95 199.329 151.48C208.759 149.227 207.589 147.149 213.755 144.034C202.758 132.82 210.937 122.873 223.194 118.575C220.273 104.932 202.361 96.2343 189.647 94.9958C187.601 94.3569 184.547 94.4248 183.212 93.7282ZM254.769 162.764L254.769 238.729C274.779 240.04 304.038 232.592 318.6 218.318C337.706 199.592 340.867 157.824 321.875 138.141C306.587 122.296 275.927 120.232 254.769 120.244C254.758 128.025 254.974 136.335 254.769 144.034C264.12 152.286 291.337 174.498 296.589 184.456C282.629 178.434 268.699 168.899 254.769 162.764ZM254.769 389.456C282.845 388.253 312.12 391.35 336.141 371.916C346.705 363.113 353.072 352.152 354.267 338.263C358.881 284.68 313.288 270.593 268.098 266.042C264.995 265.729 257.664 265.211 254.769 265.264L254.769 389.456Z"/><defs><linearGradient id="gradient_0" gradientUnits="userSpaceOnUse" x1="246.93069" y1="164.85849" x2="260.61862" y2="144.31549"><stop offset="0" stop-color="#EA863A"/><stop offset="1" stop-color="#FFB862"/></linearGradient></defs><path fill="url(#gradient_0)" transform="scale(2 2)" d="M223.194 118.575C225.147 121.608 250.055 140.777 254.769 144.034C264.12 152.286 291.337 174.498 296.589 184.456C282.629 178.434 268.699 168.899 254.769 162.764C253.01 161.551 250.401 160.424 248.428 159.486C239.852 155.412 222.558 145.887 213.755 144.034C202.758 132.82 210.937 122.873 223.194 118.575Z"/><path fill="#292A14" transform="scale(2 2)" d="M225.339 127.094C226.302 126.744 227.366 127.241 227.715 128.204C228.065 129.167 227.569 130.231 226.607 130.582C225.643 130.933 224.578 130.436 224.227 129.472C223.877 128.508 224.375 127.443 225.339 127.094Z"/><path fill="#E77F43" transform="scale(2 2)" d="M184.022 417.706C189.214 417.648 194.645 417.052 199.329 419.199C198.619 420.13 198.367 420.195 197.321 420.803C193.538 419.611 187.125 418.75 183.212 419.199C183.285 418.959 183.864 418.028 184.022 417.706Z"/><path fill="#B48377" transform="scale(2 2)" d="M199.329 419.199C202.88 419.214 205.238 421.563 207.193 424.263C204.27 422.703 200.536 421.562 197.321 420.803C198.367 420.195 198.619 420.13 199.329 419.199Z"/><path fill="#B4D5DB" transform="scale(2 2)" d="M109.076 289.599C105.045 283.466 114.941 268.181 118.972 263.125C130.193 249.048 154.335 233.943 172.818 232.099C162.701 235.885 142.862 244.531 137.648 254.043C141.714 253.405 146.541 251.022 150.809 249.953C141.589 257.68 130.609 277.131 148.677 265.264C142.571 273.08 139.865 283.411 152.245 274.926C146.978 285.853 148.194 293.407 159.497 283.746C158.83 300.142 167.116 288.176 170.716 281.722C164.795 303.933 179.268 285.197 184.022 275.927C183.271 279.133 181.802 282.984 185.336 284.766C191.186 280.745 193.684 273.074 195.64 266.644C195.71 268.536 195.61 269.525 196.315 271.293C202.419 265.409 200.786 253.419 200.948 245.918C213.599 262.267 198.249 284.559 194.323 301.582C202.595 298.261 202.496 294.188 206.492 287.341C206.474 290.819 206.275 296.239 206.492 299.562C212.291 293.912 212.045 286.046 213.755 279.154C214.78 282.554 214.473 287.502 214.447 291.194C220.232 281.881 219.907 280.817 220.537 269.585L220.684 269.939C221.38 271.634 223.084 278.31 223.859 278.848C228.459 274.469 229.989 255.177 231.522 247.807C234.905 265.111 229.371 270.971 224.023 285.053L224.359 284.987C225.016 283.832 225.491 282.351 226.351 281.658L226.901 281.572C226.865 283.314 223.566 286.199 224.12 287.341C216.677 299.583 206.273 310.504 195.1 319.406C193.54 320.649 184.136 326.874 184.022 327.415C181.51 328.974 173.338 332.814 172.007 334.034C170.174 334.582 166.032 335.918 164.759 337.246L164.652 337.546C162.442 338.221 160.314 338.806 157.99 338.881C160.19 334.332 160.953 329.909 161.954 324.982C159.084 328.494 154.15 336.847 152.245 341.019C151.999 341.378 151.725 341.835 151.42 342.122C146.39 343.853 127.022 347.221 123.786 341.019C123.877 340.168 123.984 339.723 123.786 338.881C121.868 339.747 117.909 341.636 116.017 342.122C112.667 343.478 99.3012 347.873 97.1989 343.623C97.4771 342.198 104.084 337.177 105.644 335.865C90.4338 341.606 93.8762 332.889 105.644 326.321C88.0899 329.112 95.734 318.215 103.833 311.679C82.4278 313.599 104.157 294.504 109.076 289.599Z"/><path fill="#DCE2E2" transform="scale(2 2)" d="M200.948 245.918C213.599 262.267 198.249 284.559 194.323 301.582C202.595 298.261 202.496 294.188 206.492 287.341C206.474 290.819 206.275 296.239 206.492 299.562C212.291 293.912 212.045 286.046 213.755 279.154C214.78 282.554 214.473 287.502 214.447 291.194C220.232 281.881 219.907 280.817 220.537 269.585L220.684 269.939C221.38 271.634 223.084 278.31 223.859 278.848C228.459 274.469 229.989 255.177 231.522 247.807C234.905 265.111 229.371 270.971 224.023 285.053L224.359 284.987C225.016 283.832 225.491 282.351 226.351 281.658L226.901 281.572C226.865 283.314 223.566 286.199 224.12 287.341C216.677 299.583 206.273 310.504 195.1 319.406C193.54 320.649 184.136 326.874 184.022 327.415C181.51 328.974 173.338 332.814 172.007 334.034C170.174 334.582 166.032 335.918 164.759 337.246L164.652 337.546C162.442 338.221 160.314 338.806 157.99 338.881C160.19 334.332 160.953 329.909 161.954 324.982C159.084 328.494 154.15 336.847 152.245 341.019C151.999 341.378 151.725 341.835 151.42 342.122C146.39 343.853 127.022 347.221 123.786 341.019C123.877 340.168 123.984 339.723 123.786 338.881C121.868 339.747 117.909 341.636 116.017 342.122L115.93 341.829C116.149 341.493 120.432 339.859 121.24 339.473C126.823 336.805 132.436 333.766 137.7 330.525C137.908 329.387 137.757 328.563 137.648 327.415C134.725 329.009 118.747 339.725 117.064 339.574C118.787 338.327 120.516 337.819 122.258 336.658C124.675 335.049 157.666 313.73 157.99 312.866C159.894 311.147 163.688 309.17 165.873 307.168C173.365 300.3 179.68 293.135 185.336 284.766C191.186 280.745 193.684 273.074 195.64 266.644C195.71 268.536 195.61 269.525 196.315 271.293C202.419 265.409 200.786 253.419 200.948 245.918Z"/><defs><linearGradient id="gradient_1" gradientUnits="userSpaceOnUse" x1="153.58221" y1="293.59155" x2="180.90137" y2="306.33362"><stop offset="0" stop-color="#5B728B"/><stop offset="1" stop-color="#6EA4BC"/></linearGradient></defs><path fill="url(#gradient_1)" transform="scale(2 2)" d="M195.64 266.644C195.71 268.536 195.61 269.525 196.315 271.293C198.052 275.789 188.181 288.667 185.639 291.85C170.397 310.937 152.191 322.652 131.578 334.645C130.288 335.396 124.623 338.22 123.786 338.881C121.868 339.747 117.909 341.636 116.017 342.122L115.93 341.829C116.149 341.493 120.432 339.859 121.24 339.473C126.823 336.805 132.436 333.766 137.7 330.525C137.908 329.387 137.757 328.563 137.648 327.415C134.725 329.009 118.747 339.725 117.064 339.574C118.787 338.327 120.516 337.819 122.258 336.658C124.675 335.049 157.666 313.73 157.99 312.866C159.894 311.147 163.688 309.17 165.873 307.168C173.365 300.3 179.68 293.135 185.336 284.766C191.186 280.745 193.684 273.074 195.64 266.644Z"/><path fill="#B4D5DB" transform="scale(2 2)" d="M123.786 341.019C124.998 340.506 136.773 342.311 139.409 342.309C144.202 342.305 147.513 341.77 152.245 341.019C151.999 341.378 151.725 341.835 151.42 342.122C146.39 343.853 127.022 347.221 123.786 341.019Z"/><path fill="#3B5168" transform="scale(2 2)" d="M109.076 289.599C114.425 291.493 117.502 290.246 122.551 288.339C105.71 304.967 111.214 313.743 131.433 301.582C128.308 304.722 124.859 310.466 125.137 314.813C125.8 325.177 142.132 311.594 144.438 310.182C138.133 322.285 152.739 315.921 157.99 312.866C157.666 313.73 124.675 335.049 122.258 336.658C120.516 337.819 118.787 338.327 117.064 339.574C118.747 339.725 134.725 329.009 137.648 327.415C137.757 328.563 137.908 329.387 137.7 330.525C132.436 333.766 126.823 336.805 121.24 339.473C120.432 339.859 116.149 341.493 115.93 341.829L116.017 342.122C112.667 343.478 99.3012 347.873 97.1989 343.623C97.4771 342.198 104.084 337.177 105.644 335.865C90.4338 341.606 93.8762 332.889 105.644 326.321C88.0899 329.112 95.734 318.215 103.833 311.679C82.4278 313.599 104.157 294.504 109.076 289.599Z"/><path fill="#DCE2E2" transform="scale(2 2)" d="M185.336 168.327C173.648 163.987 158.074 148.474 154.734 136.079C149.998 118.507 155.785 101.39 174.187 95.8858C177.172 94.9927 180.245 94.5586 183.212 93.7282C184.547 94.4248 187.601 94.3569 189.647 94.9958C179.583 99.3404 170.614 98.3619 163.25 110.865C165.687 110.614 168.338 110.198 170.716 109.611C163.957 114.71 161.146 115.95 157.99 123.684C161.971 120.509 162.511 120.243 167.252 118.575C163.913 120.713 156.043 128.356 156.795 132.75L156.99 132.844C160.285 129.398 159.627 128.945 164.652 126.961L163.663 128.901C156.227 143.412 180.521 156.41 189.499 162.677C203.075 172.566 211.57 181.395 216.602 198.032C223.132 219.621 213.389 228.448 194.323 231.019C194.735 229.902 195.332 228.427 195.64 227.313C192.621 228.302 188.51 228.917 185.336 229.432C184.209 210.004 185.577 188.05 185.336 168.327Z"/><path fill="#F7B2CD" transform="scale(2 2)" d="M185.336 168.327C187.023 168.921 189.694 171.022 191.181 172.143C204.695 182.318 214.775 196.315 208.643 214.011C204.977 224.595 199.551 222.894 195.64 227.313C192.621 228.302 188.51 228.917 185.336 229.432C184.209 210.004 185.577 188.05 185.336 168.327Z"/><path fill="#E77F43" transform="scale(2 2)" d="M161.954 324.982C160.953 329.909 160.19 334.332 157.99 338.881L157.975 339.187C157.718 343.639 152.34 364.656 150.311 368.538C149.216 370.632 156.275 417.903 157.024 421.995C158.924 421.886 169.922 421.454 170.716 420.803C171.195 421.117 183.65 421.425 186.867 424.263C192.051 427.916 197.902 427.816 203.621 435.339C197.525 432.88 191.225 430.996 185.515 428.667C177.349 425.336 172.29 423.574 163.25 424.263C170.551 426.509 181.35 430.973 185.336 437.644C171.451 431.654 151.919 423.727 137.648 430.146C141.529 421.751 152.201 423.131 152.601 421.226C153.155 418.586 152.407 414.576 152.042 411.901L146.691 374.69C143.611 354.531 141.984 361.585 151.42 342.122C151.725 341.835 151.999 341.378 152.245 341.019C154.15 336.847 159.084 328.494 161.954 324.982Z"/><defs><linearGradient id="gradient_2" gradientUnits="userSpaceOnUse" x1="153.39055" y1="371.84689" x2="214.80362" y2="392.28891"><stop offset="0" stop-color="#C35C36"/><stop offset="1" stop-color="#EC883E"/></linearGradient></defs><path fill="url(#gradient_2)" transform="scale(2 2)" d="M164.652 337.546L164.759 337.246C166.032 335.918 170.174 334.582 172.007 334.034C170.317 340.09 168.025 348.706 167.309 354.845C167.012 357.393 167.578 360.054 167.159 362.577C166.709 365.285 165.285 367.865 165.25 370.623C165.19 375.463 172.809 414.246 174.765 417.601C176.278 420.194 181.616 417.623 184.022 417.706C183.864 418.028 183.285 418.959 183.212 419.199C188.944 421.047 196.168 422.11 200.948 425.257C203.171 426.436 205.067 427.825 206.436 429.992L206.29 430.276C204.726 430.204 200.868 428.22 199.329 427.406C194.83 425.829 191.607 424.727 186.867 424.263C183.65 421.425 171.195 421.117 170.716 420.803L170.821 419.498C171.482 412.126 162.416 380.158 160.265 370.988C159.634 368.301 156.731 362.125 157.283 359.967C159.162 352.618 162.988 345.131 164.652 337.546Z"/><path fill="#E77F43" transform="scale(2 2)" d="M200.948 425.257C203.171 426.436 205.067 427.825 206.436 429.992L206.29 430.276C204.726 430.204 200.868 428.22 199.329 427.406C202.401 427.334 204.111 429.681 201.217 425.64L200.948 425.257Z"/><path transform="scale(2 2)" d="M192.709 113.61C194.023 113.1 195.475 113.074 196.806 113.536C199.637 114.518 201.293 117.455 200.668 120.386C200.043 123.316 197.333 125.322 194.348 125.064C191.363 124.806 189.037 122.364 188.924 119.37C188.829 116.84 190.349 114.527 192.709 113.61Z"/><path fill="#DCE2E2" transform="scale(2 2)" d="M192.709 113.61C194.023 113.1 195.475 113.074 196.806 113.536L196.315 113.951C204.902 120.32 184.445 121.757 192.98 113.951L192.709 113.61Z"/><path fill="#302F30" transform="scale(2 2)" d="M192.709 113.61C194.023 113.1 195.475 113.074 196.806 113.536L196.315 113.951C194.804 113.703 194.494 113.705 192.98 113.951L192.709 113.61Z"/></svg>