<?xml version="1.0" encoding="utf-8" ?><svg xmlns="http://www.w3.org/2000/svg" xmlns:xlink="http://www.w3.org/1999/xlink" width="1024" height="1024" viewBox="0 0 1024 1024"><path fill="#FCFCFC" d="M0 0L1024 0L1024 1024L0 1024L0 0Z"/><path d="M468.799 274.685C474.19 274.284 479.606 275 484.708 276.789C497.797 281.334 504.188 289.496 510.005 301.411C519.032 305.39 531.154 309.448 540.724 313.143L599.478 336.267C595.977 329.063 584.701 316.957 585.22 311.326C588.155 306.624 597.402 310.165 601.992 311.325L606.211 306.868C613.748 299.034 618.165 305.552 623.437 311.62C627.463 310.638 638.887 306.829 640.679 311.998C639.833 316.7 636.406 321.427 633.445 325.119C628.372 331.445 624.265 337.735 620.076 344.661C628.743 348.931 636.151 351.816 644.675 356.889C638.02 356.145 629.951 354.397 623.249 353.108C630.081 365.245 636.81 373.834 644.751 385.126C652.485 396.005 659.701 407.244 666.375 418.804C679.421 441.377 687.793 458.959 686.326 485.588C683.181 531.953 645.716 550.491 603.346 547.373C560.055 544.187 535.512 514.802 539.211 471.639C542.331 435.222 568.616 400.208 589.315 371.246C592.925 366.195 601.473 354.065 605.743 350.479C605.484 359.627 600.864 376.66 598.522 386.2C605.434 373.757 608.403 365.264 612.895 351.861C588.091 345.28 562.496 339.953 537.422 334.365C526.226 331.87 514.728 329.164 503.472 327.055C500.316 326.464 493.435 328.437 489.782 328.811C483.519 329.451 479.708 329.115 473.503 328.249C477.283 341.374 482.979 349.406 489.842 360.841C504.458 385.193 518.1 410.237 517.827 439.505C517.609 462.956 507.327 489.67 490.484 506.087C489.53 502.112 489.307 495.723 488.875 491.349C474.42 515.057 459.277 526.896 438.695 542.406C436.968 543.708 420.073 588.039 417.542 594.17C416.947 595.612 417.222 618.461 417.243 623.197L417.165 674.127L417.299 749.66C417.29 761.081 416.669 784.235 418.064 794.542C420.594 798.18 441.65 803.91 446.964 805.088C450.29 805.826 462.879 805.522 466.98 805.521L500.627 805.49L562.063 805.516C585.545 805.525 602.908 806.133 625.681 802.021C701.057 788.059 732.837 729.837 730.55 658.048C728.885 605.769 722.326 565.738 674.794 533.934C677.746 530.652 679.708 528.117 682.361 524.563C689.236 513.79 691.054 508.259 693.625 495.946C751.955 533.222 772.74 591.787 772.633 658.487C772.548 711.213 761.804 759.486 723.049 797.874C701.151 819.565 675.34 833.526 645.528 840.997C614.223 849.167 586.902 848.485 555.035 848.472L494.955 848.491L316.587 848.446L316.587 589.307C324.856 583.791 332.516 577.747 341.032 572.456L358.931 572.554L358.955 805.5L377.755 805.52C377.974 790.24 377.688 774.623 377.712 759.296L377.81 667.066C377.783 658.584 374.42 653.057 374.349 645.075C374.31 640.803 379.356 632.55 380.491 628.261C383.218 617.965 391.144 597.479 391.49 587.656C391.63 583.668 389.23 565.303 388.726 560.225C380.84 561.96 372.71 562.925 364.661 563.523C358.17 564.005 341.735 563.034 337.091 564.972C326.349 569.454 292.173 600.749 285.408 600.019C284.712 599.944 284.599 599.543 284.19 599.049C283.766 594.071 291.856 580.585 294.61 575.399C286.958 579.38 266.225 593.353 258.719 592.22L258.213 591.414C259.283 581.43 283.405 549.841 289.76 539.909C282.064 542.382 275.68 545.058 267.696 546.855C270.288 539.666 276.582 529.481 280.682 522.783C291.675 504.823 303.157 488.577 317.013 472.653C343.913 441.741 381.555 413.09 423.363 408.277C428.462 407.69 435.14 407.813 440.254 408.333C445.555 408.872 451.238 410.406 456.593 409.975C459.971 409.737 463.089 408.075 465.169 405.403C477.691 389.523 452.661 353.216 444.337 337.794C430.475 312.109 434.739 278.536 468.799 274.685Z"/><path fill="#FCFCFC" d="M607.435 402.714C626.227 399.764 643.835 412.66 646.692 431.467C649.549 450.273 636.566 467.817 617.746 470.582C599.056 473.327 581.66 460.454 578.823 441.778C575.985 423.101 588.773 405.643 607.435 402.714Z"/><path d="M615.262 408.999C618.62 412.006 614.492 412.473 615.884 416.152C618.448 416.75 620.368 414.241 622.916 414.619C623.941 418.586 617.96 420.723 615.005 421.589C614.269 421.618 613.533 421.636 612.796 421.643C608.849 421.669 603.206 420.307 603.342 415.398C605.113 412.262 610.874 411.809 614.637 409.405L615.262 408.999Z"/><path d="M602.379 452.638C603.426 452.945 607.34 455.234 608.242 455.979C613.141 460.028 621.787 451.639 625.404 454.859C625.227 456.768 625.23 456.226 623.914 458.011C617.854 462.102 611.99 462.751 605.189 459.923C601.538 458.406 599.965 456.041 602.379 452.638Z"/><path d="M598.739 435.246C600.937 434.748 603.147 436.03 603.805 438.186C604.463 440.341 603.347 442.64 601.245 443.454C599.741 444.037 598.038 443.73 596.832 442.659C595.627 441.588 595.121 439.933 595.523 438.371C595.924 436.809 597.166 435.603 598.739 435.246Z"/><path d="M624.289 435.809C625.726 435.18 627.393 435.397 628.621 436.373C629.849 437.348 630.437 438.923 630.15 440.465C629.862 442.007 628.745 443.263 627.248 443.73C625.102 444.399 622.808 443.274 622.021 441.169C621.235 439.064 622.231 436.711 624.289 435.809Z"/><path d="M611.939 445.454C614.266 445.68 616.04 445.792 617.222 447.981C616.52 449.732 616.629 449.231 614.664 450.471C612.341 450.35 610.353 450.441 609.312 448.061C610.068 446.302 610.053 446.739 611.939 445.454Z"/><path fill="#FCFCFC" d="M403.986 596.282C405.825 600.805 404.969 782.075 404.552 801.042C401.329 799.697 397.924 797.979 394.753 796.449C393.325 795.538 391.861 794.31 390.512 793.253C388.91 751.896 391.372 709.526 390.252 668.061C389.999 658.704 393.007 646.38 392.201 636.342C392.118 635.301 394.118 627.889 394.592 626.479C397.841 616.817 399.962 605.557 403.986 596.282Z"/><path fill="#FCFCFC" d="M484.286 293.759C486.415 293.227 488.664 293.901 490.149 295.516C491.635 297.131 492.118 299.43 491.409 301.506C490.7 303.583 488.912 305.106 486.749 305.475C483.575 306.018 480.54 303.954 479.877 300.803C479.215 297.652 481.162 294.541 484.286 293.759Z"/><path d="M316.588 191.99L486.607 192.048L539.944 192.049C569.099 192.017 591.214 191.695 619.674 198.44C694.254 216.116 736.791 277.788 738.027 352.48C738.794 398.84 728.116 441.318 695.062 476.022C693.741 456.145 689.088 443.478 680.23 426.085C681.005 424.797 681.759 423.496 682.491 422.183C698.896 392.579 699.443 346.22 690.365 314.066C679.672 272.799 645.732 246.973 605.332 238.275C585.656 234.04 569.298 234.488 549.375 234.496L504.267 234.532L358.956 234.588L358.954 424.14C341.785 434.974 330.865 445.851 316.643 459.869L316.588 191.99Z"/></svg>