<?xml version="1.0" encoding="utf-8" ?><svg xmlns="http://www.w3.org/2000/svg" xmlns:xlink="http://www.w3.org/1999/xlink" width="512" height="512" viewBox="0 0 512 512"><path d="M220.102 247.827C240.698 255.349 258.118 263.198 268.896 283.774C288.915 321.99 274.062 372.933 235.133 393.012C202.157 410.02 163.925 407.395 127.984 407.421C96.9672 407.443 78.1954 410.953 78.2238 371.276L78.2354 144.545C78.2321 138.337 77.9112 131.24 78.3527 125.189C79.4498 110.155 93.1527 102.965 106.783 102.798C149.795 102.743 178.648 100.65 220.102 115.105C218.208 122.466 230.47 122.824 235.245 124.61C260.578 140.673 267.843 180.081 258.645 206.871C251.499 227.684 238.871 238.431 220.102 247.827ZM218.75 353.076C228.406 343.76 232.995 333.658 233.362 320.299C234.534 277.655 194.544 270.026 161.056 269.75L120.743 269.749L120.743 367.503L154.96 367.509C177.729 367.504 200.078 368.576 218.75 353.076ZM120.743 142.526C120.548 145.955 120.724 149.82 120.736 153.313L120.743 235.476L143.987 235.481C162.439 235.47 188.29 235.537 203.037 222.954C220.747 207.071 223.774 175.85 207.735 158.239C190.965 139.826 147.457 142.612 123.345 142.526L120.743 142.526Z"/><path d="M289.136 105.999C313.926 64.3434 376.667 107.761 348.764 154.089C338.646 171.428 317.796 175.159 311.645 199.743C330.882 193.754 353.202 196.367 370.93 205.802C392.412 217.236 406.418 238.529 421.469 256.847C435.822 274.313 437.164 273.073 424.448 295.186C416.07 309.756 398.27 324.489 381.987 329.188C379.364 330.314 376.504 331.019 373.745 331.782C364.032 334.251 351.232 333.737 341.444 331.782C339.186 331.433 334.768 329.81 332.237 329.188C331.268 328.359 322.058 323.904 319.772 322.486C293.002 305.885 279.483 274.62 282.308 243.704C285.159 216.9 293.635 188.411 310.114 166.773C317.432 157.165 330.498 151.722 335.312 141.34C349.922 109.83 302.207 82.7429 286.573 117.018C286.237 113.896 287.966 108.842 289.136 105.999ZM304.115 223.891C302.466 227.872 301.955 231.799 301.375 236.048C297.935 261.291 301.84 285.241 322.465 302.188C349.736 324.596 385.38 316.447 406.134 289.893C407.635 287.972 409.297 285.494 410.356 283.268C400.099 285.233 394.295 283.297 384.93 279.757C379.878 295.725 357.567 289.433 347.115 283.268C335.588 274.261 327.144 260.552 327.392 245.513L327.619 245.302C331.284 258.916 339.178 269.252 351.6 276.516C358.639 280.632 374.008 287.122 377.416 275.527C375.858 268.654 374.932 268.568 371.829 262.788C380.423 268.152 394.423 277.333 405.137 275.797C416.326 274.193 403.714 263.33 400.55 259.148C382.604 235.952 364.372 212.988 332.237 214.427C323.74 214.571 309.862 217.005 304.115 223.891Z"/><path fill="#FA7305" d="M332.237 329.188C334.768 329.81 339.186 331.433 341.444 331.782C341.444 339.722 340.883 353.114 344.655 359.984C340.899 365.959 341.534 369.492 340.666 376.675L337.398 403.612C347.326 405.891 355.966 413.795 343.895 417.607C339.85 416.046 334.604 412.801 330.248 410.835C326.056 413.056 321.075 419.875 316.643 421.966C307.691 418.692 311.413 413.01 317.872 408.906C314.452 407.973 308.383 407.523 306.077 404.887C303.606 402.224 309.879 397.238 311.964 397.381C317.354 397.748 323.209 399.308 328.61 400.031C329.295 397.279 329.796 389.501 330.174 386.315L332.245 367.774C334.11 352.297 331.744 343.557 332.237 329.188Z"/><path fill="#FA7305" d="M381.987 329.188C383.774 338.099 382.378 354.87 386.154 361.049C385.209 362.833 384.704 363.639 384.217 365.581L384.097 366.044C382.86 370.95 380.991 397.784 381.437 403.612L381.796 403.78C388.467 406.842 395.602 405.212 392.158 414.696C390.076 420.055 378.576 413.015 375.152 410.835C370.461 414.084 360.979 426.271 356.675 419.813C353.037 414.354 358.38 412.237 361.515 408.906C352.312 407.545 343.768 403.143 357.346 398.069C362.007 399.019 367.256 400.022 371.829 401.312C372.663 386.754 374.735 371.41 375.232 356.976C375.123 348.752 374.087 340.109 373.745 331.782C376.504 331.019 379.364 330.314 381.987 329.188Z"/><path fill="#F59E27" d="M220.102 115.105C223.156 111.948 233.049 112.04 237.331 111.6L256.849 109.431C266.57 108.408 279.586 106.357 289.136 105.999C287.966 108.842 286.237 113.896 286.573 117.018C285.481 121.982 286.021 124.911 286.573 129.916L286.573 133.472C277.62 132.139 241.982 124.28 235.245 124.61C230.47 122.824 218.208 122.466 220.102 115.105Z"/><path d="M303.931 112.205C305.726 111.785 307.616 112.191 309.079 113.314C310.543 114.437 311.425 116.157 311.483 118.001C311.574 120.885 309.647 123.445 306.85 124.156C303.536 124.998 300.171 122.976 299.359 119.654C298.548 116.332 300.601 112.986 303.931 112.205ZM306.356 117.682C307.519 117.132 308.024 115.751 307.49 114.581C306.957 113.412 305.583 112.887 304.406 113.405C303.63 113.746 303.098 114.478 303.013 115.321C302.928 116.164 303.304 116.988 303.996 117.477C304.688 117.965 305.59 118.044 306.356 117.682Z"/></svg>